# File created by Blade
# Date/Time:  Wed Apr 08 17:24:25 2015
#---------------------------------------------------------
:version 1.10
:name HOM
:units
  mass 1.0
  length 1.000000
  angle deg
:documentation
     Acclaim Skeleton File
:root
   axis xyz
   order TX TY TZ RX RY RZ
   position 0.000000 0.000000 0.000000
   orientation 0 0 0
:bonedata
   begin
      id 1
      name Spine_dum
      direction 0.000000 1.000000 0.000000
      length 5.893853
      axis 0.0 0.0 0.0 xyz
   end
   begin
      id 2
      name LeftUpLeg_dum
      direction 1.000000 0.000000 0.000000
      length 3.697939
      axis 0.0 0.0 0.0 xyz
   end
   begin
      id 3
      name RightUpLeg_dum
      direction -1.000000 0.000000 0.000000
      length 3.697939
      axis 0.0 0.0 0.0 xyz
   end
   begin
      id 4
      name Spine
      direction 0.000000 1.000000 0.000000
      length 0.000000
      axis 0.0 0.0 0.0 xyz
      dof rx ry rz
   end
   begin
      id 5
      name Spine_dum1
      direction 0.000000 1.000000 0.000000
      length 16.447146
      axis 0.0 0.0 0.0 xyz
   end
   begin
      id 6
      name Spine_dum2
      direction 0.000000 1.000000 0.000000
      length 10.900383
      axis 0.0 0.0 0.0 xyz
   end
   begin
      id 7
      name Spine_dum3
      direction 0.000000 1.000000 0.000000
      length 10.900383
      axis 0.0 0.0 0.0 xyz
   end
   begin
      id 8
      name Head
      direction 0.000000 1.000000 0.000000
      length 4.527550
      axis 0.0 0.0 0.0 xyz
      dof rx ry rz
   end
   begin
      id 9
      name LeftShoulder
      direction 1.000000 0.000000 0.000000
      length 8.219464
      axis 0.0 0.0 -90.0 xyz
      dof rx ry rz
   end
   begin
      id 10
      name LeftArm
      direction 1.000000 0.000000 0.000000
      length 11.094937
      axis 0.0 0.0 -90.0 xyz
      dof rx ry rz
   end
   begin
      id 11
      name LeftForeArm
      direction 1.000000 0.000000 0.000000
      length 9.103875
      axis 0.0 0.0 -90.0 xyz
      dof ry rz rx
   end
   begin
      id 12
      name LeftHand
      direction 0.000000 0.000000 0.000000
      length 0.000000
      axis 0.0 0.0 -90.0 xyz
      dof rx ry rz
   end
   begin
      id 13
      name LeftHand_dum1
      direction 0.000000 0.000000 0.000000
      length 0.000000
      axis 0.0 0.0 -90.0 xyz
   end
   begin
      id 14
      name LeftHand_dum2
      direction 1.000000 0.000000 0.000000
      length 3.937000
      axis 0.0 0.0 -90.0 xyz
   end
   begin
      id 15
      name LeftHandThumb1
      direction 0.000000 0.000000 1.000000
      length 3.937000
      axis 0.0 0.0 -90.0 xyz
      dof rx rz ry
   end
   begin
      id 16
      name RightShoulder
      direction -1.000000 0.000000 0.000000
      length 8.219464
      axis 0.0 0.0 90.0 xyz
      dof rx ry rz
   end
   begin
      id 17
      name RightArm
      direction -1.000000 0.000000 0.000000
      length 11.094937
      axis 0.0 0.0 90.0 xyz
      dof rx ry rz
   end
   begin
      id 18
      name RightForeArm
      direction -1.000000 0.000000 0.000000
      length 9.103875
      axis 0.0 0.0 90.0 xyz
      dof ry rz rx
   end
   begin
      id 19
      name RightHand
      direction 0.000000 0.000000 0.000000
      length 0.000000
      axis 0.0 0.0 90.0 xyz
      dof rx ry rz
   end
   begin
      id 20
      name RightHand_dum1
      direction 0.000000 0.000000 0.000000
      length 0.000000
      axis 0.0 0.0 90.0 xyz
   end
   begin
      id 21
      name RightHand_dum2
      direction -1.000000 0.000000 0.000000
      length 3.937000
      axis 0.0 0.0 90.0 xyz
   end
   begin
      id 22
      name RightHandThumb1
      direction 0.000000 0.000000 1.000000
      length 3.937000
      axis 0.0 0.0 90.0 xyz
      dof rx rz ry
   end
   begin
      id 23
      name LeftUpLeg
      direction 0.000000 -1.000000 0.000000
      length 16.181467
      axis 0.0 0.0 0.0 xyz
      dof rx ry rz
   end
   begin
      id 24
      name LeftLeg
      direction 0.000000 -1.000000 0.000000
      length 16.501392
      axis 0.0 0.0 0.0 xyz
      dof rx ry rz
   end
   begin
      id 25
      name LeftFoot
      direction 0.000000 -0.258819 0.965926
      length 6.408245
      axis 15.0 0.0 0.0 xyz
      dof rx ry rz
   end
   begin
      id 26
      name LeftToeBase
      direction 0.000000 0.000000 1.000000
      length 2.952750
      axis 0.0 0.0 0.0 xyz
      dof rx ry rz
   end
   begin
      id 27
      name RightUpLeg
      direction 0.000000 -1.000000 0.000000
      length 16.181467
      axis 0.0 0.0 0.0 xyz
      dof rx ry rz
   end
   begin
      id 28
      name RightLeg
      direction 0.000000 -1.000000 0.000000
      length 16.501392
      axis 0.0 0.0 0.0 xyz
      dof rx ry rz
   end
   begin
      id 29
      name RightFoot
      direction 0.000000 -0.258819 0.965926
      length 6.408245
      axis 15.0 0.0 0.0 xyz
      dof rx ry rz
   end
   begin
      id 30
      name RightToeBase
      direction 0.000000 0.000000 1.000000
      length 2.952750
      axis 0.0 0.0 0.0 xyz
      dof rx ry rz
   end
:hierarchy
   begin
      root Spine_dum LeftUpLeg_dum RightUpLeg_dum
      Spine_dum Spine
      LeftUpLeg_dum LeftUpLeg
      RightUpLeg_dum RightUpLeg
      Spine Spine_dum1 Spine_dum2 Spine_dum3
      Spine_dum1 Head
      Spine_dum2 LeftShoulder
      Spine_dum3 RightShoulder
      LeftShoulder LeftArm
      LeftArm LeftForeArm
      LeftForeArm LeftHand
      LeftHand LeftHand_dum1 LeftHand_dum2
      LeftHand_dum1 LeftHandThumb1
      RightShoulder RightArm
      RightArm RightForeArm
      RightForeArm RightHand
      RightHand RightHand_dum1 RightHand_dum2
      RightHand_dum1 RightHandThumb1
      LeftUpLeg LeftLeg
      LeftLeg LeftFoot
      LeftFoot LeftToeBase
      RightUpLeg RightLeg
      RightLeg RightFoot
      RightFoot RightToeBase
   end

# File created by Blade
# Date/Time:  Wed Apr 08 17:24:36 2015
# Frame Rate: 120.000 fps
#------------------------------------------------------
:FULLY-SPECIFIED
:DEGREES
422
root 6.607995 36.464114 2.613939 -29.498934 -34.098288 -13.052131
Spine 46.582253 -6.370119 8.706906
Head -7.564043 28.635097 -0.548288
LeftShoulder 7.601385 8.507552 18.740935
LeftArm 57.051216 39.182957 -61.367441
LeftForeArm -11.803210 -0.000000 40.998812
LeftHand -13.015375 -0.000000 -9.955177
LeftHandThumb1 -26.253704 0.000000 33.147579
RightShoulder -12.735164 -40.419852 -1.112357
RightArm 76.164064 -9.557388 38.902038
RightForeArm 44.442086 -0.000000 48.612379
RightHand 0.164635 0.000000 18.355054
RightHandThumb1 -24.326973 -0.000000 -32.862282
LeftUpLeg 32.906833 11.637538 16.095096
LeftLeg 21.967306 -0.000000 -0.000000
LeftFoot -18.035412 -2.973324 0.792762
LeftToeBase 5.782145 -0.000000 -0.000000
RightUpLeg -84.967500 -3.076302 30.818650
RightLeg 148.520622 -0.000000 -0.000000
RightFoot 4.048397 -5.267310 17.413878
RightToeBase -4.277159 -0.000000 0.000000
423
root 6.598416 36.466153 2.613797 -29.438584 -34.441061 -13.146767
Spine 46.623185 -6.310728 8.674349
Head -7.489400 28.503502 -0.475307
LeftShoulder 7.623954 8.471914 18.731196
LeftArm 57.259174 39.203423 -61.166734
LeftForeArm -11.798215 -0.000000 40.813534
LeftHand -12.982329 -0.000000 -10.013321
LeftHandThumb1 -26.253704 0.000000 33.147579
RightShoulder -12.790133 -40.419573 -1.037032
RightArm 76.171503 -9.581940 39.004958
RightForeArm 44.535462 -0.000000 48.508482
RightHand 0.117800 -0.000000 18.321290
RightHandThumb1 -24.326973 -0.000000 -32.862282
LeftUpLeg 33.024341 11.819526 16.318662
LeftLeg 21.939952 -0.000000 -0.000000
LeftFoot -18.064241 -2.935569 0.745664
LeftToeBase 5.788600 -0.000000 -0.000000
RightUpLeg -84.906631 -3.135877 30.718819
RightLeg 148.457238 -0.000000 -0.000000
RightFoot 4.126522 -5.191004 17.363585
RightToeBase -4.155507 -0.000000 0.000000
424
root 6.591197 36.467891 2.615804 -29.390627 -34.810949 -13.203653
Spine 46.661403 -6.212174 8.634537
Head -7.426637 28.333342 -0.416160
LeftShoulder 7.629738 8.406265 18.735787
LeftArm 57.457376 39.259380 -61.039212
LeftForeArm -12.108930 -0.000000 40.571833
LeftHand -12.990658 -0.000000 -10.703516
LeftHandThumb1 -26.253704 0.000000 33.147579
RightShoulder -12.822233 -40.450758 -0.990744
RightArm 76.134384 -9.591832 39.137869
RightForeArm 44.647987 -0.000000 48.445275
RightHand 0.130481 -0.000000 18.267495
RightHandThumb1 -24.326973 -0.000000 -32.862282
LeftUpLeg 33.171190 12.012630 16.490041
LeftLeg 21.856656 -0.000000 -0.000000
LeftFoot -18.068672 -2.840901 0.701614
LeftToeBase 5.741368 -0.000000 -0.000000
RightUpLeg -84.845077 -3.172688 30.582901
RightLeg 148.409946 -0.000000 -0.000000
RightFoot 4.203389 -5.124643 17.330679
RightToeBase -4.258428 -0.000000 0.000000
425
root 6.586332 36.469291 2.619872 -29.344330 -35.160970 -13.244557
Spine 46.681497 -6.137922 8.568588
Head -7.342286 28.184495 -0.356050
LeftShoulder 7.675108 8.335231 18.751455
LeftArm 57.593637 39.296859 -60.942272
LeftForeArm -12.176637 -0.000000 40.375832
LeftHand -12.956135 -0.000000 -10.799223
LeftHandThumb1 -26.253704 0.000000 33.147579
RightShoulder -12.900019 -40.475239 -0.909504
RightArm 76.169486 -9.634992 39.289944
RightForeArm 44.529083 -0.000000 48.316682
RightHand 0.167297 0.000000 17.975689
RightHandThumb1 -24.326973 -0.000000 -32.862282
LeftUpLeg 33.309709 12.177094 16.616052
LeftLeg 21.766932 -0.000000 -0.000000
LeftFoot -18.081884 -2.738091 0.629424
LeftToeBase 5.797960 -0.000000 -0.000000
RightUpLeg -84.814192 -3.224431 30.394173
RightLeg 148.379376 -0.000000 -0.000000
RightFoot 4.278061 -5.021819 17.332161
RightToeBase -4.153810 -0.000000 0.000000
